<svg width="20" height="20" viewBox="0 0 20 20" fill="none" xmlns="http://www.w3.org/2000/svg">
<g clip-path="url(#clip0_7130_27234)">
<path d="M9.091 3.10382L9.091 13.6362C9.091 14.1383 9.49803 14.5453 10.0001 14.5453C10.5021 14.5453 10.9092 14.1383 10.9092 13.6362L10.9092 3.10382L12.0845 4.27921C12.4395 4.63424 13.0151 4.63424 13.3701 4.27921C13.7252 3.9243 13.7252 3.34867 13.3701 2.99358L10.6431 0.266485C10.622 0.245394 10.6 0.225515 10.577 0.206606C10.5714 0.202 10.5653 0.19806 10.5595 0.193576C10.5419 0.179697 10.5242 0.16606 10.5055 0.153576C10.5001 0.149939 10.4943 0.14697 10.4888 0.143394C10.4693 0.130909 10.4496 0.118667 10.4291 0.107636C10.425 0.105515 10.4207 0.103757 10.4166 0.101636C10.3944 0.0901817 10.3718 0.0791514 10.3486 0.069515C10.3457 0.0683029 10.3427 0.0674544 10.3398 0.0663029C10.3153 0.0564241 10.2905 0.0472726 10.265 0.039515C10.2618 0.0384847 10.2585 0.0379393 10.2552 0.0370302C10.2302 0.0296968 10.2049 0.0229696 10.179 0.017818C10.1713 0.0163029 10.1634 0.0156362 10.1556 0.0142423C10.1342 0.0104847 10.1127 0.00672712 10.0908 0.00460591C10.0608 0.001515 10.0305 -1.57619e-07 10.0001 -1.58949e-07C9.96967 -1.60279e-07 9.93936 0.00151499 9.9093 0.0046059C9.88712 0.00672711 9.86548 0.0106059 9.84385 0.0143029C9.83633 0.0156362 9.82864 0.0163029 9.82118 0.017818C9.79506 0.0230301 9.76954 0.0296968 9.74427 0.0370907C9.7413 0.0379998 9.73815 0.0385453 9.73518 0.0394544C9.70954 0.0472726 9.68451 0.0564241 9.65979 0.0664241C9.65712 0.067515 9.65427 0.0683029 9.65161 0.0694544C9.62815 0.0791514 9.60548 0.0902423 9.58312 0.101818C9.57918 0.103818 9.57506 0.105515 9.57112 0.107576C9.55045 0.118727 9.53057 0.13103 9.51088 0.143697C9.50554 0.147091 9.49991 0.15 9.4947 0.153515C9.47597 0.16606 9.45815 0.179818 9.44045 0.193636C9.43476 0.19806 9.42876 0.202 9.42318 0.206545C9.40021 0.225515 9.37815 0.245394 9.35712 0.266424L6.63003 2.99352C6.45246 3.17103 6.36373 3.4037 6.36373 3.63636C6.36373 3.86903 6.45246 4.1017 6.63003 4.27915C6.98506 4.63418 7.56064 4.63418 7.91567 4.27915L9.091 3.10382Z" fill="#BEA995"/>
<path d="M17.4365 12.5637C17.4365 10.0823 16.2055 7.77353 14.1436 6.38777C13.7269 6.10777 13.1621 6.21856 12.882 6.63523C12.602 7.05195 12.7127 7.61674 13.1295 7.89686C14.6879 8.9442 15.6184 10.6888 15.6184 12.5637C15.6183 15.6616 13.098 18.182 10.0001 18.182C6.90212 18.182 4.38182 15.6616 4.38182 12.5637C4.38182 10.6943 5.30806 8.95256 6.85945 7.90444C7.27551 7.62329 7.38485 7.05832 7.10382 6.64219C6.82273 6.22619 6.25763 6.11674 5.84163 6.39783C3.78903 7.78456 2.56363 10.0895 2.56363 12.5637C2.56363 16.6641 5.89957 20.0001 10.0001 20.0001C14.1005 20.0001 17.4365 16.6641 17.4365 12.5637Z" fill="#BEA995"/>
</g>
<defs>
<clipPath id="clip0_7130_27234">
<rect width="20" height="20" fill="white" transform="translate(20) rotate(90)"/>
</clipPath>
</defs>
</svg>
