<svg width="24" height="24" viewBox="0 0 24 24" fill="none" xmlns="http://www.w3.org/2000/svg">
<g clip-path="url(#clip0_91_3015)">
<rect x="3.05" y="3.05" width="17.9" height="17.9" rx="0.95" stroke="black" stroke-opacity="0.25" stroke-width="0.1"/>
<rect x="2.05" y="4.05" width="19.9" height="15.9" rx="0.95" stroke="black" stroke-opacity="0.25" stroke-width="0.1"/>
<rect x="4.05" y="2.05" width="15.9" height="19.9" rx="0.95" stroke="black" stroke-opacity="0.25" stroke-width="0.1"/>
<circle cx="12" cy="12" r="9.95" stroke="black" stroke-opacity="0.25" stroke-width="0.1"/>
<circle cx="12" cy="12" r="4.95" stroke="black" stroke-opacity="0.25" stroke-width="0.1"/>
<path d="M0.05 0.05H8H12H16H23.95V8V12V16V23.95H16H12H8H0.05V16V12V8V0.05Z" stroke="black" stroke-opacity="0.25" stroke-width="0.1"/>
<path fill-rule="evenodd" clip-rule="evenodd" d="M7.0542 11.2723C7.01388 11.3154 6.97137 11.3579 6.92657 11.3994C6.41801 11.8706 5.69846 12.1456 4.75098 12.2364V19.027C4.75098 19.7733 5.31062 20.3783 6.00098 20.3783H18.001C18.6913 20.3783 19.251 19.7733 19.251 19.027V12.2253C18.2321 12.0972 17.5247 11.7066 17.0502 11.2033C16.5469 11.812 15.735 12.2702 14.501 12.2702C13.2892 12.2702 12.4846 11.8285 11.9794 11.2362C11.4755 11.8205 10.6838 12.2702 9.50098 12.2702C8.34256 12.2702 7.55936 11.8389 7.0542 11.2723ZM11.2714 9.25731L12.7307 9.29672C12.751 9.29659 12.751 9.29645 12.751 9.2963L12.751 9.29368L12.7509 9.2908L12.7509 9.2878C12.7511 9.29169 12.7516 9.3021 12.7529 9.31807C12.7555 9.3503 12.7615 9.40326 12.7743 9.46974C12.8004 9.60534 12.8518 9.77973 12.9495 9.94862C13.1153 10.2354 13.4908 10.6486 14.501 10.6486C15.5111 10.6486 15.8867 10.2354 16.0525 9.94862C16.1501 9.77973 16.2015 9.60534 16.2277 9.46974C16.2405 9.40326 16.2464 9.3503 16.2491 9.31807C16.2504 9.3021 16.2509 9.29169 16.251 9.2878L16.251 9.2908L16.251 9.29368L16.251 9.29538C16.251 9.29586 16.251 9.29727 17.001 9.29727C17.751 9.29727 17.751 9.29668 17.751 9.29611L17.751 9.29499L17.751 9.29288L17.7509 9.28919L17.7508 9.28386C17.7508 9.28121 17.7507 9.28032 17.7508 9.28106C17.7508 9.28258 17.7512 9.29047 17.7526 9.3038C17.7552 9.33074 17.7615 9.37792 17.7755 9.43846C17.8037 9.56041 17.8609 9.72592 17.976 9.89187C18.1803 10.1863 18.684 10.6486 20.001 10.6486H20.751V19.027C20.751 20.6689 19.5198 22 18.001 22H6.00098C4.48219 22 3.25098 20.6689 3.25098 19.027V10.6486H4.00098C5.17471 10.6486 5.71051 10.3904 5.95038 10.1681C6.16092 9.97305 6.25098 9.70398 6.25098 9.29727L7.73051 9.25731C7.75001 9.25613 7.75 9.25599 7.75 9.25586L7.74988 9.25336L7.74973 9.25066L7.74967 9.24887C7.75004 9.25335 7.75105 9.26442 7.75315 9.28114C7.75738 9.31482 7.76581 9.36969 7.78171 9.43846C7.81409 9.5785 7.87372 9.76002 7.97981 9.93647C8.16543 10.2452 8.55294 10.6486 9.50098 10.6486C10.449 10.6486 10.8365 10.2452 11.0221 9.93647C11.1282 9.76002 11.1879 9.5785 11.2202 9.43846C11.2361 9.36969 11.2446 9.31482 11.2488 9.28114C11.2509 9.26442 11.2519 9.25335 11.2523 9.24887C11.2525 9.24665 11.2525 9.24611 11.2524 9.24738L11.2522 9.25066L11.2521 9.25336L11.252 9.25498C11.252 9.25512 11.2519 9.25613 11.2714 9.25731ZM7.74967 9.24887C7.74955 9.24744 7.74949 9.2467 7.74949 9.2467L7.74967 9.24887Z" fill="#14142B"/>
<path fill-rule="evenodd" clip-rule="evenodd" d="M9.25 16.8649C9.25 15.223 10.4812 13.892 12 13.892C13.5188 13.892 14.75 15.223 14.75 16.8649V22.0001H9.25V16.8649ZM12 15.5136C11.3096 15.5136 10.75 16.1186 10.75 16.8649V20.3784H13.25V16.8649C13.25 16.1186 12.6904 15.5136 12 15.5136Z" fill="#14142B"/>
<path fill-rule="evenodd" clip-rule="evenodd" d="M1.25098 4.97297C1.25098 3.33104 2.48219 2 4.00098 2H7.75098V9.29729H7.00098C7.75098 9.29729 7.75098 9.29678 7.75098 9.29729L7.75097 9.29937L7.75097 9.30167L7.75093 9.3069L7.75075 9.31983C7.75057 9.32954 7.75025 9.34142 7.74972 9.35532C7.74865 9.38311 7.74669 9.41915 7.74312 9.4623C7.73602 9.54831 7.7224 9.66428 7.69615 9.80049C7.64416 10.0703 7.53934 10.4364 7.32448 10.8081C6.86528 11.6024 5.99085 12.2703 4.50098 12.2703C3.01111 12.2703 2.13667 11.6024 1.67748 10.8081C1.46262 10.4364 1.3578 10.0703 1.3058 9.80049C1.27955 9.66428 1.26593 9.54831 1.25883 9.4623C1.25527 9.41915 1.25331 9.38311 1.25224 9.35532C1.2517 9.34142 1.25139 9.32954 1.25121 9.31983L1.25102 9.3069L1.25099 9.30167L1.25098 9.29937C1.25098 9.29886 1.25098 9.29729 2.00098 9.29729H1.25098V4.97297ZM2.75098 9.28881C2.75116 9.29331 2.75167 9.30332 2.75289 9.31809C2.75555 9.35032 2.76146 9.40327 2.77427 9.46976C2.80041 9.60536 2.85184 9.77975 2.94948 9.94864C3.11528 10.2354 3.49085 10.6486 4.50098 10.6486C5.51111 10.6486 5.88667 10.2354 6.05248 9.94864C6.15012 9.77975 6.20155 9.60536 6.22768 9.46976C6.24049 9.40327 6.2464 9.35032 6.24907 9.31809C6.25028 9.30332 6.25079 9.29332 6.25098 9.28881V3.62162H4.00098C3.31062 3.62162 2.75098 4.22664 2.75098 4.97297V9.28881Z" fill="#14142B"/>
<path fill-rule="evenodd" clip-rule="evenodd" d="M6.25098 2H12.751V9.29729H12.001C12.751 9.29729 12.751 9.29678 12.751 9.29729L12.751 9.29937L12.751 9.30167L12.7509 9.3069L12.7507 9.31983C12.7506 9.32954 12.7503 9.34142 12.7497 9.35532C12.7486 9.38311 12.7467 9.41915 12.7431 9.4623C12.736 9.54831 12.7224 9.66428 12.6961 9.80049C12.6442 10.0703 12.5393 10.4364 12.3245 10.8081C11.8653 11.6024 10.9908 12.2703 9.50098 12.2703C8.01111 12.2703 7.13667 11.6024 6.67748 10.8081C6.46262 10.4364 6.3578 10.0703 6.3058 9.80049C6.27955 9.66428 6.26593 9.54831 6.25883 9.4623C6.25527 9.41915 6.25331 9.38311 6.25224 9.35532C6.2517 9.34142 6.25139 9.32954 6.25121 9.31983L6.25102 9.3069L6.25099 9.30167L6.25098 9.29937C6.25098 9.29886 6.25098 9.29729 7.00098 9.29729H6.25098V2ZM7.75098 9.28881C7.75116 9.29331 7.75167 9.30332 7.75289 9.31809C7.75555 9.35032 7.76146 9.40327 7.77427 9.46976C7.80041 9.60536 7.85184 9.77975 7.94948 9.94864C8.11528 10.2354 8.49085 10.6486 9.50098 10.6486C10.5111 10.6486 10.8867 10.2354 11.0525 9.94864C11.1501 9.77975 11.2015 9.60536 11.2277 9.46976C11.2405 9.40327 11.2464 9.35032 11.2491 9.31809C11.2503 9.30332 11.2508 9.29332 11.251 9.28881V3.62162H7.75098V9.28881Z" fill="#14142B"/>
<path fill-rule="evenodd" clip-rule="evenodd" d="M11.251 2H17.751V9.29729H17.001C17.751 9.29729 17.751 9.29678 17.751 9.29729L17.751 9.29937L17.751 9.30167L17.7509 9.3069L17.7507 9.31983C17.7506 9.32954 17.7503 9.34142 17.7497 9.35532C17.7486 9.38311 17.7467 9.41915 17.7431 9.4623C17.736 9.54831 17.7224 9.66428 17.6961 9.80049C17.6442 10.0703 17.5393 10.4364 17.3245 10.8081C16.8653 11.6024 15.9908 12.2703 14.501 12.2703C13.0111 12.2703 12.1367 11.6024 11.6775 10.8081C11.4626 10.4364 11.3578 10.0703 11.3058 9.80049C11.2796 9.66428 11.2659 9.54831 11.2588 9.4623C11.2553 9.41915 11.2533 9.38311 11.2522 9.35532C11.2517 9.34142 11.2514 9.32954 11.2512 9.31983L11.251 9.3069L11.251 9.30167L11.251 9.29937C11.251 9.29886 11.251 9.29729 12.001 9.29729H11.251V2ZM12.751 9.28881C12.7512 9.29331 12.7517 9.30332 12.7529 9.31809C12.7555 9.35032 12.7615 9.40327 12.7743 9.46976C12.8004 9.60536 12.8518 9.77975 12.9495 9.94864C13.1153 10.2354 13.4908 10.6486 14.501 10.6486C15.5111 10.6486 15.8867 10.2354 16.0525 9.94864C16.1501 9.77975 16.2015 9.60536 16.2277 9.46976C16.2405 9.40327 16.2464 9.35032 16.2491 9.31809C16.2503 9.30332 16.2508 9.29332 16.251 9.28881V3.62162H12.751V9.28881Z" fill="#14142B"/>
<path fill-rule="evenodd" clip-rule="evenodd" d="M16.251 2H20.001C21.5198 2 22.751 3.33104 22.751 4.97297V9.29729H22.001C22.751 9.29729 22.751 9.29678 22.751 9.29729L22.751 9.29937L22.751 9.30167L22.7509 9.3069L22.7507 9.31983C22.7506 9.32954 22.7503 9.34142 22.7497 9.35532C22.7486 9.38311 22.7467 9.41915 22.7431 9.4623C22.736 9.54831 22.7224 9.66428 22.6961 9.80049C22.6442 10.0703 22.5393 10.4364 22.3245 10.8081C21.8653 11.6024 20.9908 12.2703 19.501 12.2703C18.0111 12.2703 17.1367 11.6024 16.6775 10.8081C16.4626 10.4364 16.3578 10.0703 16.3058 9.80049C16.2796 9.66428 16.2659 9.54831 16.2588 9.4623C16.2553 9.41915 16.2533 9.38311 16.2522 9.35532C16.2517 9.34142 16.2514 9.32954 16.2512 9.31983L16.251 9.3069L16.251 9.30167L16.251 9.29937C16.251 9.29886 16.251 9.29729 17.001 9.29729H16.251V2ZM17.751 9.28881C17.7512 9.29331 17.7517 9.30332 17.7529 9.31809C17.7555 9.35032 17.7615 9.40327 17.7743 9.46976C17.8004 9.60536 17.8518 9.77975 17.9495 9.94864C18.1153 10.2354 18.4908 10.6486 19.501 10.6486C20.5111 10.6486 20.8867 10.2354 21.0525 9.94864C21.1501 9.77975 21.2015 9.60536 21.2277 9.46976C21.2405 9.40327 21.2464 9.35032 21.2491 9.31809C21.2503 9.30332 21.2508 9.29332 21.251 9.28881V4.97297C21.251 4.22664 20.6913 3.62162 20.001 3.62162H17.751V9.28881Z" fill="#14142B"/>
</g>
<defs>
<clipPath id="clip0_91_3015">
<rect width="24" height="24" fill="white"/>
</clipPath>
</defs>
</svg>
