<svg width="20" height="21" viewBox="0 0 20 21" fill="none" xmlns="http://www.w3.org/2000/svg">
<path fill-rule="evenodd" clip-rule="evenodd" d="M17.2904 8.95617C17.2904 6.52716 16.3902 4.65754 15.0015 3.40024C13.6234 2.15257 11.8017 1.54102 9.9987 1.54102C8.19573 1.54101 6.37399 2.15255 4.99589 3.40022C3.60715 4.65752 2.70703 6.52714 2.70703 8.95617C2.70703 12.1773 4.62387 14.8643 6.38196 16.6611L6.42113 16.7011C6.97717 17.2695 7.4625 17.7656 7.99281 18.1055C8.57327 18.4775 9.19059 18.656 9.9989 18.656C10.8072 18.656 11.4245 18.4774 12.005 18.1054C12.5353 17.7655 13.0206 17.2694 13.5766 16.701L13.6157 16.6609C15.3737 14.8641 17.2904 12.1773 17.2904 8.95617ZM12.498 8.83236C12.498 10.2131 11.3788 11.3324 9.99805 11.3324C8.61734 11.3324 7.49805 10.2131 7.49805 8.83236C7.49805 7.45164 8.61734 6.33236 9.99805 6.33236C11.3788 6.33236 12.498 7.45164 12.498 8.83236Z" fill="#EF2738"/>
</svg>
