<svg width="24" height="24" viewBox="0 0 24 24" fill="none" xmlns="http://www.w3.org/2000/svg">
<path d="M2.02977 10.3523C2.46736 15.8096 8.06072 19.3998 11.3288 20.755C11.7352 20.9235 12.1895 20.9325 12.6006 20.7759C16.0066 19.479 21.4022 15.875 21.9217 10.3523C22.9149 3.00053 14.1743 0.882658 11.9608 5.30851C9.62412 0.825141 1.44559 3.06683 2.02977 10.3523Z" fill="white"/>
<path fill-rule="evenodd" clip-rule="evenodd" d="M5.61995 2.72126C3.05209 3.75431 0.963728 6.44208 1.28207 10.4122C1.52098 13.3917 3.16362 15.8151 5.10418 17.6385C7.04575 19.4628 9.34359 20.7437 11.0414 21.4478C11.6221 21.6885 12.2746 21.7025 12.8674 21.4768C14.6495 20.7982 16.939 19.5236 18.861 17.6916C20.7811 15.8614 22.381 13.4277 22.6668 10.4376C23.2053 6.40614 21.0528 3.7247 18.4119 2.71337C16.2069 1.86896 13.5167 2.17156 11.9563 3.97146C10.3877 2.15792 7.79032 1.84812 5.61995 2.72126ZM6.17979 4.11287C8.18859 3.30473 10.3526 3.84581 11.2957 5.65513C11.4259 5.90502 11.6852 6.06082 11.967 6.05846C12.2488 6.05611 12.5055 5.896 12.6315 5.64396C13.5086 3.89036 15.7647 3.30587 17.8755 4.11417C19.9066 4.89201 21.6258 6.93997 21.1783 10.2519C21.177 10.2619 21.1758 10.272 21.1749 10.282C20.9373 12.8077 19.5818 14.9323 17.826 16.6059C16.0688 18.2808 13.9575 19.4567 12.3336 20.075L12.6005 20.7759L12.3336 20.075C12.1041 20.1624 11.8481 20.1584 11.616 20.0622C10.0457 19.411 7.91285 18.2193 6.13132 16.5454C4.34879 14.8705 2.97596 12.7702 2.77727 10.2923C2.51144 6.977 4.22025 4.90119 6.17979 4.11287Z" fill="white"/>
</svg>
