<svg width="24" height="24" viewBox="0 0 24 24" fill="none" xmlns="http://www.w3.org/2000/svg">
<path d="M2.5 6.5C2.5 4.29086 4.29086 2.5 6.5 2.5H17.5C19.7091 2.5 21.5 4.29086 21.5 6.5V12C21.5 14.2091 19.7091 16 17.5 16H13.6775C13.5627 16 13.4513 16.0395 13.3622 16.1119L6.95492 21.3179C6.55742 21.6408 5.98909 21.2284 6.17295 20.7503L7.73866 16.6795C7.86462 16.352 7.62287 16 7.27199 16H6.5C4.29086 16 2.5 14.2091 2.5 12V6.5Z" fill="white"/>
<path fill-rule="evenodd" clip-rule="evenodd" d="M1.75 6.5C1.75 3.87665 3.87665 1.75 6.5 1.75H17.5C20.1234 1.75 22.25 3.87665 22.25 6.5V12C22.25 14.6234 20.1234 16.75 17.5 16.75H13.7663L7.42786 21.9C6.43412 22.7074 5.01331 21.6761 5.47294 20.4811L6.90798 16.75H6.5C3.87665 16.75 1.75 14.6234 1.75 12V6.5ZM6.5 3.25C4.70507 3.25 3.25 4.70507 3.25 6.5V12C3.25 13.7949 4.70507 15.25 6.5 15.25H7.27199C8.14921 15.25 8.75357 16.13 8.43867 16.9487L7.20943 20.1447L12.8893 15.5299C13.1121 15.3488 13.3904 15.25 13.6775 15.25H17.5C19.2949 15.25 20.75 13.7949 20.75 12V6.5C20.75 4.70507 19.2949 3.25 17.5 3.25H6.5Z" fill="white"/>
<path fill-rule="evenodd" clip-rule="evenodd" d="M6.75 11.3574C6.75 10.9432 7.08579 10.6074 7.5 10.6074H16.5C16.9142 10.6074 17.25 10.9432 17.25 11.3574C17.25 11.7716 16.9142 12.1074 16.5 12.1074H7.5C7.08579 12.1074 6.75 11.7716 6.75 11.3574Z" fill="#1F1F36"/>
<path fill-rule="evenodd" clip-rule="evenodd" d="M6.75 8C6.75 7.58579 7.08579 7.25 7.5 7.25H12C12.4142 7.25 12.75 7.58579 12.75 8C12.75 8.41421 12.4142 8.75 12 8.75H7.5C7.08579 8.75 6.75 8.41421 6.75 8Z" fill="#1F1F36"/>
</svg>
