<svg width="24" height="24" viewBox="0 0 24 24" fill="none" xmlns="http://www.w3.org/2000/svg">
<path d="M16.2858 6.28571C16.2858 8.65265 14.367 10.5714 12.0001 10.5714C9.63314 10.5714 7.71436 8.65265 7.71436 6.28571C7.71436 3.91878 9.63314 2 12.0001 2C14.367 2 16.2858 3.91878 16.2858 6.28571Z" fill="white"/>
<path fill-rule="evenodd" clip-rule="evenodd" d="M12.0001 2.75C10.0473 2.75 8.46436 4.33299 8.46436 6.28571C8.46436 8.23844 10.0473 9.82143 12.0001 9.82143C13.9528 9.82143 15.5358 8.23844 15.5358 6.28571C15.5358 4.33299 13.9528 2.75 12.0001 2.75ZM6.96436 6.28571C6.96436 3.50457 9.21892 1.25 12.0001 1.25C14.7812 1.25 17.0358 3.50457 17.0358 6.28571C17.0358 9.06686 14.7812 11.3214 12.0001 11.3214C9.21892 11.3214 6.96436 9.06686 6.96436 6.28571Z" fill="white"/>
<path d="M21.5719 21.1429H3.00049C3.00049 18.7619 4.85763 14 12.2862 14C19.7148 14 21.5719 18.7619 21.5719 21.1429Z" fill="white"/>
<path fill-rule="evenodd" clip-rule="evenodd" d="M4.31007 16.1661C5.86731 14.5023 8.39993 13.25 12.2862 13.25C16.1725 13.25 18.7051 14.5023 20.2623 16.1661C21.8 17.8088 22.3219 19.7847 22.3219 21.1429C22.3219 21.5571 21.9861 21.8929 21.5719 21.8929H3.00049C2.58627 21.8929 2.25049 21.5571 2.25049 21.1429C2.25049 19.7847 2.77244 17.8088 4.31007 16.1661ZM3.81427 20.3929H20.7581C20.6021 19.4301 20.1405 18.2309 19.1672 17.1911C17.9387 15.8786 15.8285 14.75 12.2862 14.75C8.74391 14.75 6.63367 15.8786 5.40519 17.1911C4.43191 18.2309 3.97034 19.4301 3.81427 20.3929Z" fill="white"/>
</svg>
