<svg width="24" height="24" viewBox="0 0 24 24" fill="none" xmlns="http://www.w3.org/2000/svg">
<path fill-rule="evenodd" clip-rule="evenodd" d="M1.25 11C1.25 8.92893 2.92893 7.25 5 7.25H18.7167C20.2078 7.25 21.4167 8.45883 21.4167 9.95V11.1524C22.1603 11.1955 22.75 11.8122 22.75 12.5667V16.4333C22.75 17.1878 22.1603 17.8045 21.4167 17.8476V19.05C21.4167 20.5412 20.2078 21.75 18.7167 21.75H5C2.92893 21.75 1.25 20.0711 1.25 18V11ZM5 8.75C3.75736 8.75 2.75 9.75736 2.75 11V18C2.75 19.2426 3.75736 20.25 5 20.25H18.7167C19.3794 20.25 19.9167 19.7127 19.9167 19.05V17.7667C19.9167 17.0122 20.5064 16.3955 21.25 16.3524V12.6476C20.5064 12.6045 19.9167 11.9878 19.9167 11.2333V9.95C19.9167 9.28726 19.3794 8.75 18.7167 8.75H5Z" fill="#14142B"/>
<path fill-rule="evenodd" clip-rule="evenodd" d="M15.25 13C15.25 12.0335 16.0335 11.25 17 11.25H21C21.9665 11.25 22.75 12.0335 22.75 13V16C22.75 16.9665 21.9665 17.75 21 17.75H17C16.0335 17.75 15.25 16.9665 15.25 16V13ZM17 12.75C16.8619 12.75 16.75 12.8619 16.75 13V16C16.75 16.1381 16.8619 16.25 17 16.25H21C21.1381 16.25 21.25 16.1381 21.25 16V13C21.25 12.8619 21.1381 12.75 21 12.75H17Z" fill="#14142B"/>
<path fill-rule="evenodd" clip-rule="evenodd" d="M13.8446 3.78138C13.7761 3.65593 13.6167 3.61326 13.4947 3.68777L7.66556 7.25005H15.7366L13.8446 3.78138ZM12.7126 2.40785C13.5661 1.88624 14.6824 2.18494 15.1614 3.0631L17.5777 7.49303C17.8867 8.05945 17.4767 8.75005 16.8315 8.75005H5.3554C4.49695 8.75005 4.17965 7.62241 4.91216 7.17476L12.7126 2.40785Z" fill="#14142B"/>
<path fill-rule="evenodd" clip-rule="evenodd" d="M9 17.75C8.58579 17.75 8.25 17.4142 8.25 17L8.25 12C8.25 11.5858 8.58579 11.25 9 11.25C9.41421 11.25 9.75 11.5858 9.75 12L9.75 17C9.75 17.4142 9.41421 17.75 9 17.75Z" fill="#14142B"/>
</svg>
